<svg xmlns="http://www.w3.org/2000/svg" xmlns:xlink="http://www.w3.org/1999/xlink" width="500" zoomAndPan="magnify" viewBox="0 0 375 374.999991" height="500" preserveAspectRatio="xMidYMid meet" version="1.0"><defs><g/><clipPath id="280d2e568c"><path d="M 162 119 L 221.957031 119 L 221.957031 214 L 162 214 Z M 162 119 " clip-rule="nonzero"/></clipPath><clipPath id="65fc398b7c"><path d="M 140.207031 118.039062 L 175 118.039062 L 175 154 L 140.207031 154 Z M 140.207031 118.039062 " clip-rule="nonzero"/></clipPath></defs><g clip-path="url(#280d2e568c)"><path fill="#ffffff" d="M 176.585938 168.839844 C 174.035156 163.574219 174.121094 156.964844 177.804688 152.222656 C 184.527344 144.929688 191.042969 156.859375 193.414062 162.28125 C 190.792969 158.851562 188.824219 154.496094 184.707031 152.609375 C 179.644531 150.144531 176.085938 156.5 175.863281 160.820312 C 176.304688 177.691406 208.585938 203.328125 221.902344 212.875 C 221.792969 211.304688 220.699219 209.890625 219.839844 208.605469 C 212.917969 199.289062 205.636719 190.203125 198.246094 181.296875 C 207.199219 188.929688 214.109375 198.578125 220.9375 208.058594 C 216.542969 195.675781 207.210938 185.898438 198.394531 176.464844 C 206.703125 183.332031 214.457031 191.53125 219.121094 201.40625 C 219.265625 201.707031 219.449219 201.746094 219.742188 201.574219 C 221.105469 200.699219 221.328125 199.476562 221.066406 197.390625 C 218.882812 182.785156 211.019531 169.316406 201.617188 158.136719 C 199.753906 156.003906 197.753906 153.984375 195.808594 151.921875 C 195.570312 151.667969 195.347656 151.445312 195.398438 151.046875 C 195.582031 149.632812 196.851562 142.75 195.507812 136.558594 C 193.433594 127.003906 188.847656 119.441406 177.082031 119.203125 C 175.175781 119.246094 173.65625 119.03125 173.792969 120.566406 C 173.804688 121.144531 173.851562 121.1875 174.652344 121.253906 C 179.023438 121.558594 182.0625 125.476562 182.070312 129.722656 C 182.167969 131.242188 183.410156 132.054688 184.589844 132.765625 C 192.199219 138.683594 181.015625 147.039062 177.242188 151.84375 C 174.96875 153.863281 172.15625 159.066406 168.6875 157.933594 C 164.90625 156.714844 163.875 151.664062 166.199219 148.652344 C 167.933594 145.683594 173.625 141.632812 169.910156 138.234375 C 169.828125 141.9375 166.777344 144.519531 164.875 147.457031 C 162.222656 151.375 162.949219 156.511719 163.574219 160.945312 C 165.339844 171.582031 171.085938 181.785156 181.0625 186.605469 C 181.410156 186.796875 181.613281 186.992188 181.671875 187.410156 C 181.941406 189.285156 182.242188 191.160156 182.546875 193.03125 C 182.765625 194.476562 180.90625 194.898438 179.984375 195.59375 C 177.121094 196.949219 173.90625 198.628906 172.640625 201.722656 C 171.53125 205.226562 171.214844 210.054688 174.347656 212.605469 C 176.328125 214.003906 179.667969 213.621094 180.785156 211.496094 C 178.796875 213.097656 176.011719 211.777344 175.421875 209.296875 C 177.515625 210.101562 179.664062 209.90625 181.253906 208.3125 C 173.769531 209.804688 174.613281 198.476562 181.832031 200.074219 C 183.074219 200.40625 184.023438 201.125 184.695312 202.207031 C 184.820312 202.40625 184.757812 202.65625 185.089844 202.367188 C 185.824219 201.878906 186.011719 202.980469 185.699219 203.464844 C 185.238281 204.679688 184.234375 205.449219 183.199219 206.140625 C 184.75 206.421875 186.417969 205.871094 187.582031 204.75 C 190.042969 202.054688 186.109375 199.320312 184.03125 197.976562 C 186.59375 198.785156 189.894531 198.726562 191.792969 196.480469 C 192.027344 196.1875 192.230469 196.34375 192.464844 196.425781 C 196.007812 197.546875 199.4375 199.230469 203.109375 199.824219 C 193.050781 190.71875 182.445312 181.378906 176.585938 168.839844 Z M 201.914062 169.085938 C 209.203125 176.6875 215.625 185.699219 218.429688 195.953125 C 215.339844 188.535156 211.542969 181.445312 206.550781 175.117188 C 205.089844 173.230469 203.554688 171.394531 202.050781 169.535156 C 201.980469 169.425781 201.644531 169.128906 201.914062 169.085938 Z M 201.914062 169.085938 " fill-opacity="1" fill-rule="nonzero"/></g><g clip-path="url(#65fc398b7c)"><path fill="#ffffff" d="M 174.257812 131.765625 C 174.21875 131.136719 174.140625 131.097656 173.46875 131.113281 C 161.433594 130.632812 150.34375 136.71875 144.519531 147.28125 C 149.113281 135.699219 161.476562 129.425781 173.617188 130.9375 C 174.109375 130.984375 174.152344 130.921875 174.058594 130.414062 C 173.503906 126.949219 172.246094 123.339844 173.5625 119.894531 C 173.792969 119.3125 173.789062 119.296875 173.1875 119.066406 C 170.445312 118.042969 167.4375 118.582031 164.65625 119.167969 C 152.738281 122.191406 140.535156 131.082031 140.207031 144.511719 C 140.4375 147.421875 141.257812 151.425781 143.789062 153.417969 C 145.175781 147.707031 150.152344 143.863281 155.136719 141.273438 C 159.738281 139.035156 164.925781 138.566406 169.84375 137.351562 C 173.722656 136.382812 174.753906 135.992188 174.257812 131.765625 Z M 168.058594 122.871094 C 169.066406 122.453125 169.289062 125.441406 169.328125 126.269531 C 169.695312 132.152344 160.015625 128.519531 150.300781 136.363281 C 154.90625 130.445312 161.058594 125.671875 168.058594 122.871094 Z M 159.742188 137.914062 C 163.613281 135.734375 163.59375 132.929688 168.792969 132.195312 C 169.277344 132.113281 169.769531 132.054688 170.257812 132.015625 C 171.09375 131.863281 171.035156 132.359375 171.042969 133.039062 C 171.136719 135.582031 168.519531 136.574219 166.363281 136.863281 C 164.167969 137.183594 161.9375 137.808594 159.742188 137.914062 Z M 159.742188 137.914062 " fill-opacity="1" fill-rule="nonzero"/></g><path fill="#ffffff" d="M 179.660156 126.828125 C 179.65625 123.339844 174.300781 123.25 174.273438 126.734375 C 174.203125 130.335938 179.644531 130.289062 179.660156 126.828125 Z M 176.988281 124.679688 C 179.695312 124.71875 179.8125 128.855469 176.921875 128.914062 C 174.167969 128.738281 174.097656 124.789062 176.988281 124.679688 Z M 176.988281 124.679688 " fill-opacity="1" fill-rule="nonzero"/><path fill="#ffffff" d="M 176.984375 128.257812 C 178.742188 128.257812 178.890625 125.308594 177.019531 125.320312 C 175.03125 125.285156 175.082031 128.234375 176.984375 128.257812 Z M 176.984375 128.257812 " fill-opacity="1" fill-rule="nonzero"/><g fill="#ffffff" fill-opacity="1"><g transform="translate(114.318586, 229.153211)"><g><path d="M 2.6875 0.09375 L 2.28125 0.015625 L 1.890625 -0.125 L 1.6875 -0.1875 L 1.5 -0.265625 L 1.359375 -0.421875 L 1.015625 -0.640625 L 0.875 -0.796875 L 0.734375 -0.921875 L 0.546875 -1.296875 L 0.484375 -1.46875 L 0.421875 -1.875 L 0.5 -2.078125 L 0.6875 -2.15625 L 1.453125 -2.203125 L 1.640625 -2.171875 L 1.8125 -2.1875 L 2.015625 -2.109375 L 2.34375 -1.75 L 2.515625 -1.640625 L 2.6875 -1.546875 L 3.203125 -1.5 L 3.375 -1.53125 L 3.6875 -1.546875 L 4.03125 -1.703125 L 4.15625 -1.84375 L 4.234375 -2.09375 L 4.1875 -2.34375 L 4.046875 -2.46875 L 3.6875 -2.640625 L 2.125 -2.8125 L 1.765625 -2.9375 L 1.078125 -3.3125 L 0.703125 -3.765625 L 0.546875 -4.125 L 0.484375 -4.515625 L 0.46875 -4.828125 L 0.5 -5.3125 L 0.6875 -5.875 L 1.03125 -6.34375 L 1.515625 -6.671875 L 1.84375 -6.875 L 2.234375 -6.984375 L 2.40625 -7.015625 L 2.609375 -7.03125 L 2.828125 -7.09375 L 3.59375 -7.0625 L 3.984375 -6.984375 L 4.546875 -6.796875 L 5.203125 -6.34375 L 5.4375 -6.046875 L 5.703125 -5.515625 L 5.765625 -5.140625 L 5.6875 -4.96875 L 5.5 -4.828125 L 5.3125 -4.84375 L 5.125 -4.84375 L 4.84375 -4.875 L 4.375 -4.828125 L 4.15625 -4.953125 L 4.015625 -5.15625 L 3.84375 -5.296875 L 3.65625 -5.421875 L 3.484375 -5.46875 L 3.15625 -5.515625 L 2.84375 -5.5 L 2.65625 -5.453125 L 2.5 -5.375 L 2.34375 -5.265625 L 2.234375 -5.125 L 2.1875 -4.859375 L 2.21875 -4.5625 L 2.375 -4.421875 L 2.734375 -4.234375 L 3.265625 -4.125 L 3.5625 -4.125 L 3.765625 -4.09375 L 3.96875 -4.078125 L 4.171875 -4.046875 L 4.953125 -3.8125 L 5.125 -3.703125 L 5.296875 -3.625 L 5.46875 -3.453125 L 5.734375 -3.15625 L 5.84375 -3 L 5.984375 -2.421875 L 6.015625 -2.09375 L 5.953125 -1.59375 L 5.890625 -1.4375 L 5.828125 -1.25 L 5.71875 -1.03125 L 5.625 -0.890625 L 5.328125 -0.59375 L 4.65625 -0.1875 L 4.453125 -0.09375 L 4.28125 -0.0625 L 4.078125 0.015625 L 3.875 0.046875 L 3.6875 0.09375 L 3.484375 0.109375 Z M 2.6875 0.09375 "/></g></g></g><g fill="#ffffff" fill-opacity="1"><g transform="translate(122.846063, 229.153211)"><g><path d="M 3.4375 0.125 L 3.125 0.109375 L 2.921875 0.109375 L 2.53125 0.03125 L 2.15625 -0.140625 L 2 -0.234375 L 1.796875 -0.3125 L 1.484375 -0.53125 L 1.328125 -0.65625 L 1.203125 -0.796875 L 0.984375 -1.15625 L 0.8125 -1.5 L 0.71875 -1.90625 L 0.65625 -2.703125 L 0.6875 -4.3125 L 0.671875 -4.515625 L 0.703125 -4.703125 L 0.671875 -6.109375 L 0.6875 -6.265625 L 0.6875 -6.515625 L 0.671875 -6.703125 L 0.796875 -6.90625 L 1.015625 -6.984375 L 1.21875 -7.015625 L 1.65625 -6.96875 L 1.84375 -7 L 2.046875 -7 L 2.25 -6.90625 L 2.375 -6.6875 L 2.390625 -6.40625 L 2.375 -6.078125 L 2.390625 -5.9375 L 2.359375 -2.703125 L 2.421875 -2.125 L 2.484375 -1.9375 L 2.59375 -1.78125 L 2.765625 -1.65625 L 2.9375 -1.5625 L 3.15625 -1.515625 L 3.765625 -1.515625 L 4.109375 -1.640625 L 4.28125 -1.765625 L 4.390625 -1.953125 L 4.453125 -2.109375 L 4.515625 -2.734375 L 4.5 -6.671875 L 4.609375 -6.890625 L 4.8125 -6.984375 L 5.234375 -6.953125 L 5.875 -6.984375 L 6.09375 -6.90625 L 6.21875 -6.703125 L 6.1875 -6.5 L 6.1875 -5.671875 L 6.203125 -5.515625 L 6.1875 -5.296875 L 6.203125 -5.09375 L 6.203125 -2.40625 L 6.15625 -1.921875 L 6.0625 -1.5 L 5.96875 -1.328125 L 5.90625 -1.125 L 5.6875 -0.78125 L 5.40625 -0.5 L 5.0625 -0.28125 L 4.703125 -0.09375 L 3.9375 0.109375 L 3.734375 0.09375 Z M 3.4375 0.125 "/></g></g></g><g fill="#ffffff" fill-opacity="1"><g transform="translate(131.893331, 229.153211)"><g/></g></g><g fill="#ffffff" fill-opacity="1"><g transform="translate(136.752256, 229.153211)"><g><path d="M 3.484375 0.03125 L 3.28125 0.015625 L 3.078125 0.03125 L 2.84375 0.015625 L 2.65625 -0.015625 L 2.25 0.015625 L 2.0625 0 L 1.84375 0.015625 L 1.125 0.015625 L 0.828125 -0.125 L 0.75 -0.390625 L 0.734375 -0.609375 L 0.765625 -1.296875 L 0.734375 -1.5 L 0.75 -1.6875 L 0.765625 -3.3125 L 0.734375 -3.484375 L 0.734375 -4.3125 L 0.765625 -4.5 L 0.734375 -4.703125 L 0.75 -5.6875 L 0.71875 -5.90625 L 0.75 -6.3125 L 0.734375 -6.703125 L 0.84375 -6.90625 L 1.046875 -6.984375 L 1.25 -6.984375 L 1.453125 -7 L 1.625 -6.984375 L 1.8125 -7.015625 L 2.015625 -6.984375 L 2.84375 -7.015625 L 3.046875 -6.984375 L 3.203125 -7 L 3.40625 -6.984375 L 3.625 -7 L 4.4375 -7.015625 L 4.625 -6.96875 L 4.828125 -6.96875 L 5.03125 -6.890625 L 5.125 -6.703125 L 5.140625 -6.09375 L 5.125 -5.90625 L 5.140625 -5.703125 L 5.046875 -5.515625 L 4.828125 -5.40625 L 4.640625 -5.390625 L 3.203125 -5.40625 L 3.015625 -5.375 L 2.828125 -5.375 L 2.609375 -5.296875 L 2.515625 -5.109375 L 2.515625 -4.796875 L 2.59375 -4.484375 L 2.8125 -4.40625 L 3.390625 -4.421875 L 3.8125 -4.390625 L 4.015625 -4.40625 L 4.609375 -4.40625 L 4.84375 -4.28125 L 4.9375 -4 L 4.90625 -3.09375 L 4.84375 -2.90625 L 4.640625 -2.8125 L 4.40625 -2.828125 L 4.203125 -2.8125 L 3.796875 -2.8125 L 3.421875 -2.796875 L 3.09375 -2.828125 L 2.796875 -2.8125 L 2.625 -2.703125 L 2.53125 -2.5 L 2.53125 -1.875 L 2.609375 -1.6875 L 2.8125 -1.59375 L 3.046875 -1.609375 L 3.234375 -1.578125 L 3.453125 -1.59375 L 3.65625 -1.5625 L 3.984375 -1.609375 L 4.484375 -1.59375 L 4.6875 -1.5625 L 4.90625 -1.59375 L 5.125 -1.5 L 5.234375 -1.296875 L 5.234375 -0.296875 L 5.125 -0.078125 L 4.90625 0.015625 Z M 3.484375 0.03125 "/></g></g></g><g fill="#ffffff" fill-opacity="1"><g transform="translate(144.629995, 229.153211)"><g><path d="M 2.6875 0.09375 L 2.28125 0.015625 L 1.890625 -0.125 L 1.6875 -0.1875 L 1.5 -0.265625 L 1.359375 -0.421875 L 1.015625 -0.640625 L 0.875 -0.796875 L 0.734375 -0.921875 L 0.546875 -1.296875 L 0.484375 -1.46875 L 0.421875 -1.875 L 0.5 -2.078125 L 0.6875 -2.15625 L 1.453125 -2.203125 L 1.640625 -2.171875 L 1.8125 -2.1875 L 2.015625 -2.109375 L 2.34375 -1.75 L 2.515625 -1.640625 L 2.6875 -1.546875 L 3.203125 -1.5 L 3.375 -1.53125 L 3.6875 -1.546875 L 4.03125 -1.703125 L 4.15625 -1.84375 L 4.234375 -2.09375 L 4.1875 -2.34375 L 4.046875 -2.46875 L 3.6875 -2.640625 L 2.125 -2.8125 L 1.765625 -2.9375 L 1.078125 -3.3125 L 0.703125 -3.765625 L 0.546875 -4.125 L 0.484375 -4.515625 L 0.46875 -4.828125 L 0.5 -5.3125 L 0.6875 -5.875 L 1.03125 -6.34375 L 1.515625 -6.671875 L 1.84375 -6.875 L 2.234375 -6.984375 L 2.40625 -7.015625 L 2.609375 -7.03125 L 2.828125 -7.09375 L 3.59375 -7.0625 L 3.984375 -6.984375 L 4.546875 -6.796875 L 5.203125 -6.34375 L 5.4375 -6.046875 L 5.703125 -5.515625 L 5.765625 -5.140625 L 5.6875 -4.96875 L 5.5 -4.828125 L 5.3125 -4.84375 L 5.125 -4.84375 L 4.84375 -4.875 L 4.375 -4.828125 L 4.15625 -4.953125 L 4.015625 -5.15625 L 3.84375 -5.296875 L 3.65625 -5.421875 L 3.484375 -5.46875 L 3.15625 -5.515625 L 2.84375 -5.5 L 2.65625 -5.453125 L 2.5 -5.375 L 2.34375 -5.265625 L 2.234375 -5.125 L 2.1875 -4.859375 L 2.21875 -4.5625 L 2.375 -4.421875 L 2.734375 -4.234375 L 3.265625 -4.125 L 3.5625 -4.125 L 3.765625 -4.09375 L 3.96875 -4.078125 L 4.171875 -4.046875 L 4.953125 -3.8125 L 5.125 -3.703125 L 5.296875 -3.625 L 5.46875 -3.453125 L 5.734375 -3.15625 L 5.84375 -3 L 5.984375 -2.421875 L 6.015625 -2.09375 L 5.953125 -1.59375 L 5.890625 -1.4375 L 5.828125 -1.25 L 5.71875 -1.03125 L 5.625 -0.890625 L 5.328125 -0.59375 L 4.65625 -0.1875 L 4.453125 -0.09375 L 4.28125 -0.0625 L 4.078125 0.015625 L 3.875 0.046875 L 3.6875 0.09375 L 3.484375 0.109375 Z M 2.6875 0.09375 "/></g></g></g><g fill="#ffffff" fill-opacity="1"><g transform="translate(153.157473, 229.153211)"><g><path d="M 1.34375 0.03125 L 1.15625 0.015625 L 0.84375 -0.078125 L 0.734375 -0.265625 L 0.75 -2.125 L 0.734375 -2.3125 L 0.734375 -4.90625 L 0.71875 -5.09375 L 0.765625 -5.484375 L 0.75 -6.703125 L 0.84375 -6.859375 L 1.046875 -6.96875 L 1.265625 -7.015625 L 1.4375 -6.984375 L 1.65625 -6.96875 L 2.28125 -7.015625 L 2.484375 -6.984375 L 3.09375 -6.96875 L 3.3125 -7 L 3.625 -7.015625 L 3.9375 -7 L 4.125 -6.9375 L 4.328125 -6.9375 L 4.5 -6.859375 L 4.90625 -6.734375 L 5.234375 -6.515625 L 5.6875 -6.125 L 5.921875 -5.796875 L 6.109375 -5.453125 L 6.234375 -5.09375 L 6.265625 -4.875 L 6.296875 -4.703125 L 6.28125 -3.875 L 6.21875 -3.71875 L 6.1875 -3.5 L 6.015625 -3.109375 L 5.8125 -2.796875 L 5.6875 -2.640625 L 5.546875 -2.515625 L 5.40625 -2.34375 L 5.265625 -2.234375 L 4.3125 -1.84375 L 3.28125 -1.765625 L 3.0625 -1.8125 L 2.84375 -1.796875 L 2.625 -1.6875 L 2.53125 -1.5 L 2.546875 -1.265625 L 2.515625 -1.078125 L 2.546875 -0.703125 L 2.53125 -0.484375 L 2.546875 -0.296875 L 2.453125 -0.078125 L 2.234375 0 L 2.015625 0.015625 L 1.828125 0.015625 Z M 2.84375 -3.390625 L 3.078125 -3.40625 L 3.59375 -3.40625 L 3.90625 -3.4375 L 4.0625 -3.484375 L 4.21875 -3.609375 L 4.34375 -3.765625 L 4.4375 -3.9375 L 4.515625 -4.109375 L 4.53125 -4.375 L 4.515625 -4.65625 L 4.484375 -4.84375 L 4.375 -5.046875 L 4.25 -5.171875 L 4.09375 -5.28125 L 3.890625 -5.375 L 2.84375 -5.40625 L 2.640625 -5.296875 L 2.546875 -5.109375 L 2.546875 -4.703125 L 2.515625 -4.484375 L 2.546875 -3.6875 L 2.640625 -3.515625 Z M 2.84375 -3.390625 "/></g></g></g><g fill="#ffffff" fill-opacity="1"><g transform="translate(161.884869, 229.153211)"><g><path d="M 3.484375 0.03125 L 3.28125 0.015625 L 3.078125 0.03125 L 2.84375 0.015625 L 2.65625 -0.015625 L 2.25 0.015625 L 2.0625 0 L 1.84375 0.015625 L 1.125 0.015625 L 0.828125 -0.125 L 0.75 -0.390625 L 0.734375 -0.609375 L 0.765625 -1.296875 L 0.734375 -1.5 L 0.75 -1.6875 L 0.765625 -3.3125 L 0.734375 -3.484375 L 0.734375 -4.3125 L 0.765625 -4.5 L 0.734375 -4.703125 L 0.75 -5.6875 L 0.71875 -5.90625 L 0.75 -6.3125 L 0.734375 -6.703125 L 0.84375 -6.90625 L 1.046875 -6.984375 L 1.25 -6.984375 L 1.453125 -7 L 1.625 -6.984375 L 1.8125 -7.015625 L 2.015625 -6.984375 L 2.84375 -7.015625 L 3.046875 -6.984375 L 3.203125 -7 L 3.40625 -6.984375 L 3.625 -7 L 4.4375 -7.015625 L 4.625 -6.96875 L 4.828125 -6.96875 L 5.03125 -6.890625 L 5.125 -6.703125 L 5.140625 -6.09375 L 5.125 -5.90625 L 5.140625 -5.703125 L 5.046875 -5.515625 L 4.828125 -5.40625 L 4.640625 -5.390625 L 3.203125 -5.40625 L 3.015625 -5.375 L 2.828125 -5.375 L 2.609375 -5.296875 L 2.515625 -5.109375 L 2.515625 -4.796875 L 2.59375 -4.484375 L 2.8125 -4.40625 L 3.390625 -4.421875 L 3.8125 -4.390625 L 4.015625 -4.40625 L 4.609375 -4.40625 L 4.84375 -4.28125 L 4.9375 -4 L 4.90625 -3.09375 L 4.84375 -2.90625 L 4.640625 -2.8125 L 4.40625 -2.828125 L 4.203125 -2.8125 L 3.796875 -2.8125 L 3.421875 -2.796875 L 3.09375 -2.828125 L 2.796875 -2.8125 L 2.625 -2.703125 L 2.53125 -2.5 L 2.53125 -1.875 L 2.609375 -1.6875 L 2.8125 -1.59375 L 3.046875 -1.609375 L 3.234375 -1.578125 L 3.453125 -1.59375 L 3.65625 -1.5625 L 3.984375 -1.609375 L 4.484375 -1.59375 L 4.6875 -1.5625 L 4.90625 -1.59375 L 5.125 -1.5 L 5.234375 -1.296875 L 5.234375 -0.296875 L 5.125 -0.078125 L 4.90625 0.015625 Z M 3.484375 0.03125 "/></g></g></g><g fill="#ffffff" fill-opacity="1"><g transform="translate(169.762609, 229.153211)"><g><path d="M 3.484375 0.078125 L 3.296875 0.0625 L 3.109375 0.03125 L 2.90625 -0.046875 L 2.734375 -0.078125 L 2.28125 -0.265625 L 1.84375 -0.5 L 1.40625 -0.890625 L 0.984375 -1.328125 L 0.5625 -2.203125 L 0.421875 -2.765625 L 0.359375 -3.5 L 0.453125 -4.359375 L 0.5625 -4.765625 L 0.8125 -5.328125 L 1 -5.625 L 1.265625 -5.953125 L 1.703125 -6.34375 L 1.984375 -6.5625 L 2.734375 -6.921875 L 3.703125 -7.109375 L 4.3125 -7.09375 L 4.515625 -7.0625 L 4.703125 -7.0625 L 5.671875 -6.734375 L 6.34375 -6.3125 L 6.625 -6.015625 L 6.734375 -5.828125 L 6.875 -5.65625 L 6.96875 -5.5 L 7.078125 -5.34375 L 7.140625 -5.125 L 7.203125 -4.953125 L 7.265625 -4.734375 L 7.203125 -4.53125 L 7.03125 -4.453125 L 6.734375 -4.421875 L 6.453125 -4.453125 L 6.25 -4.4375 L 6.046875 -4.453125 L 5.859375 -4.4375 L 5.625 -4.546875 L 5.4375 -4.734375 L 5.328125 -4.875 L 5.046875 -5.171875 L 4.90625 -5.28125 L 4.71875 -5.34375 L 4.40625 -5.4375 L 3.984375 -5.453125 L 3.3125 -5.375 L 3.046875 -5.21875 L 2.796875 -5.03125 L 2.5625 -4.75 L 2.453125 -4.5625 L 2.3125 -4.203125 L 2.234375 -3.796875 L 2.234375 -3.1875 L 2.265625 -2.96875 L 2.3125 -2.796875 L 2.390625 -2.65625 L 2.453125 -2.453125 L 2.6875 -2.09375 L 2.96875 -1.84375 L 3.3125 -1.65625 L 3.6875 -1.53125 L 3.96875 -1.5 L 4.5 -1.53125 L 4.84375 -1.71875 L 5 -1.78125 L 5.15625 -1.921875 L 5.390625 -2.1875 L 5.484375 -2.375 L 5.65625 -2.53125 L 5.875 -2.65625 L 6.078125 -2.640625 L 6.28125 -2.65625 L 6.484375 -2.625 L 7.046875 -2.65625 L 7.234375 -2.53125 L 7.296875 -2.34375 L 7.046875 -1.59375 L 6.828125 -1.234375 L 6.59375 -0.9375 L 6.3125 -0.65625 L 5.828125 -0.296875 L 5.65625 -0.21875 L 5.453125 -0.15625 L 5.265625 -0.046875 L 4.6875 0.0625 L 3.984375 0.125 Z M 3.484375 0.078125 "/></g></g></g><g fill="#ffffff" fill-opacity="1"><g transform="translate(179.539599, 229.153211)"><g><path d="M 3.34375 0.046875 L 3.15625 -0.015625 L 2.65625 -0.015625 L 2.359375 0.03125 L 1.953125 -0.015625 L 1.765625 0.015625 L 1.453125 0.015625 L 1.15625 -0.015625 L 0.96875 0 L 0.78125 0 L 0.578125 -0.09375 L 0.484375 -0.359375 L 0.515625 -1.28125 L 0.625 -1.453125 L 1.28125 -1.65625 L 1.390625 -1.953125 L 1.359375 -5.03125 L 1.265625 -5.296875 L 1.078125 -5.421875 L 0.875 -5.421875 L 0.65625 -5.53125 L 0.546875 -5.734375 L 0.5625 -5.921875 L 0.546875 -6.65625 L 0.640625 -6.90625 L 0.84375 -7 L 1.0625 -7 L 1.265625 -6.96875 L 2.078125 -6.96875 L 2.28125 -7.015625 L 2.453125 -6.984375 L 3.671875 -6.984375 L 3.84375 -6.875 L 3.96875 -6.6875 L 3.953125 -5.703125 L 3.859375 -5.546875 L 3.65625 -5.453125 L 3.453125 -5.4375 L 3.234375 -5.34375 L 3.15625 -5.109375 L 3.125 -4.09375 L 3.15625 -3.375 L 3.140625 -3.15625 L 3.15625 -2.0625 L 3.125 -1.875 L 3.234375 -1.640625 L 3.484375 -1.5625 L 3.6875 -1.5625 L 3.90625 -1.453125 L 4.03125 -1.265625 L 4.03125 -0.265625 L 3.9375 -0.078125 L 3.75 0.015625 Z M 3.34375 0.046875 "/></g></g></g><g fill="#ffffff" fill-opacity="1"><g transform="translate(186.227807, 229.153211)"><g><path d="M 5.90625 0.015625 L 5.6875 0 L 5.453125 -0.09375 L 5.265625 -0.25 L 5.203125 -0.4375 L 5.109375 -0.625 L 4.921875 -0.78125 L 4.703125 -0.890625 L 4.484375 -0.859375 L 4.296875 -0.875 L 3.3125 -0.875 L 3.140625 -0.90625 L 2.71875 -0.859375 L 2.53125 -0.890625 L 2.3125 -0.78125 L 2.125 -0.59375 L 1.953125 -0.265625 L 1.765625 -0.078125 L 1.53125 -0.015625 L 0.96875 0.015625 L 0.765625 -0.015625 L 0.375 0.015625 L 0.1875 -0.046875 L 0.125 -0.296875 L 0.1875 -0.5 L 0.390625 -0.90625 L 0.4375 -1.078125 L 0.546875 -1.21875 L 0.703125 -1.625 L 0.875 -1.9375 L 0.953125 -2.140625 L 1.046875 -2.296875 L 1.109375 -2.515625 L 2.125 -4.65625 L 2.1875 -4.828125 L 2.296875 -5.015625 L 2.34375 -5.21875 L 2.453125 -5.375 L 2.859375 -6.296875 L 2.953125 -6.4375 L 3.015625 -6.625 L 3.109375 -6.796875 L 3.296875 -6.96875 L 3.609375 -7.078125 L 3.9375 -6.984375 L 4.109375 -6.796875 L 4.296875 -6.453125 L 4.359375 -6.265625 L 4.46875 -6.09375 L 4.53125 -5.890625 L 5.1875 -4.5 L 5.265625 -4.296875 L 5.46875 -3.921875 L 5.53125 -3.765625 L 5.625 -3.609375 L 5.6875 -3.390625 L 5.78125 -3.203125 L 5.875 -3.046875 L 6.265625 -2.140625 L 6.453125 -1.78125 L 6.59375 -1.40625 L 6.875 -0.890625 L 7.015625 -0.515625 L 7.09375 -0.296875 L 7.0625 -0.046875 L 6.78125 0 L 6.46875 0.015625 L 6.28125 -0.015625 Z M 3.625 -2.46875 L 4.03125 -2.484375 L 4.1875 -2.5625 L 4.21875 -2.734375 L 3.75 -3.84375 L 3.609375 -3.921875 L 3.5 -3.828125 L 3.03125 -2.75 L 3.046875 -2.5625 L 3.203125 -2.484375 L 3.4375 -2.515625 Z M 3.625 -2.46875 "/></g></g></g><g fill="#ffffff" fill-opacity="1"><g transform="translate(195.634935, 229.153211)"><g><path d="M 0.765625 -0.359375 L 0.75 -4.109375 L 0.734375 -4.296875 L 0.71875 -4.515625 L 0.75 -4.890625 L 0.734375 -5.09375 L 0.75 -5.28125 L 0.75 -6.6875 L 0.84375 -6.90625 L 1.046875 -6.984375 L 1.234375 -7.015625 L 1.640625 -6.96875 L 1.84375 -7.015625 L 2.234375 -7.015625 L 2.4375 -6.890625 L 2.53125 -6.671875 L 2.515625 -6.484375 L 2.546875 -5.90625 L 2.53125 -5.515625 L 2.546875 -5.265625 L 2.546875 -1.875 L 2.625 -1.6875 L 2.8125 -1.59375 L 3.03125 -1.625 L 3.421875 -1.59375 L 3.59375 -1.625 L 3.796875 -1.59375 L 4.203125 -1.59375 L 4.421875 -1.5625 L 4.609375 -1.609375 L 4.8125 -1.625 L 5 -1.515625 L 5.09375 -1.203125 L 5.09375 -0.40625 L 4.984375 -0.09375 L 4.796875 0.015625 L 2.8125 0 L 2.59375 0.015625 L 2.40625 -0.015625 L 2.03125 0.015625 L 1.640625 -0.015625 L 1.21875 0.015625 L 1.015625 0 L 0.828125 -0.09375 Z M 0.765625 -0.359375 "/></g></g></g><g fill="#ffffff" fill-opacity="1"><g transform="translate(203.162807, 229.153211)"><g><path d="M 3.34375 0.046875 L 3.15625 -0.015625 L 2.65625 -0.015625 L 2.359375 0.03125 L 1.953125 -0.015625 L 1.765625 0.015625 L 1.453125 0.015625 L 1.15625 -0.015625 L 0.96875 0 L 0.78125 0 L 0.578125 -0.09375 L 0.484375 -0.359375 L 0.515625 -1.28125 L 0.625 -1.453125 L 1.28125 -1.65625 L 1.390625 -1.953125 L 1.359375 -5.03125 L 1.265625 -5.296875 L 1.078125 -5.421875 L 0.875 -5.421875 L 0.65625 -5.53125 L 0.546875 -5.734375 L 0.5625 -5.921875 L 0.546875 -6.65625 L 0.640625 -6.90625 L 0.84375 -7 L 1.0625 -7 L 1.265625 -6.96875 L 2.078125 -6.96875 L 2.28125 -7.015625 L 2.453125 -6.984375 L 3.671875 -6.984375 L 3.84375 -6.875 L 3.96875 -6.6875 L 3.953125 -5.703125 L 3.859375 -5.546875 L 3.65625 -5.453125 L 3.453125 -5.4375 L 3.234375 -5.34375 L 3.15625 -5.109375 L 3.125 -4.09375 L 3.15625 -3.375 L 3.140625 -3.15625 L 3.15625 -2.0625 L 3.125 -1.875 L 3.234375 -1.640625 L 3.484375 -1.5625 L 3.6875 -1.5625 L 3.90625 -1.453125 L 4.03125 -1.265625 L 4.03125 -0.265625 L 3.9375 -0.078125 L 3.75 0.015625 Z M 3.34375 0.046875 "/></g></g></g><g fill="#ffffff" fill-opacity="1"><g transform="translate(209.851014, 229.153211)"><g><path d="M 2.6875 0.09375 L 2.28125 0.015625 L 1.890625 -0.125 L 1.6875 -0.1875 L 1.5 -0.265625 L 1.359375 -0.421875 L 1.015625 -0.640625 L 0.875 -0.796875 L 0.734375 -0.921875 L 0.546875 -1.296875 L 0.484375 -1.46875 L 0.421875 -1.875 L 0.5 -2.078125 L 0.6875 -2.15625 L 1.453125 -2.203125 L 1.640625 -2.171875 L 1.8125 -2.1875 L 2.015625 -2.109375 L 2.34375 -1.75 L 2.515625 -1.640625 L 2.6875 -1.546875 L 3.203125 -1.5 L 3.375 -1.53125 L 3.6875 -1.546875 L 4.03125 -1.703125 L 4.15625 -1.84375 L 4.234375 -2.09375 L 4.1875 -2.34375 L 4.046875 -2.46875 L 3.6875 -2.640625 L 2.125 -2.8125 L 1.765625 -2.9375 L 1.078125 -3.3125 L 0.703125 -3.765625 L 0.546875 -4.125 L 0.484375 -4.515625 L 0.46875 -4.828125 L 0.5 -5.3125 L 0.6875 -5.875 L 1.03125 -6.34375 L 1.515625 -6.671875 L 1.84375 -6.875 L 2.234375 -6.984375 L 2.40625 -7.015625 L 2.609375 -7.03125 L 2.828125 -7.09375 L 3.59375 -7.0625 L 3.984375 -6.984375 L 4.546875 -6.796875 L 5.203125 -6.34375 L 5.4375 -6.046875 L 5.703125 -5.515625 L 5.765625 -5.140625 L 5.6875 -4.96875 L 5.5 -4.828125 L 5.3125 -4.84375 L 5.125 -4.84375 L 4.84375 -4.875 L 4.375 -4.828125 L 4.15625 -4.953125 L 4.015625 -5.15625 L 3.84375 -5.296875 L 3.65625 -5.421875 L 3.484375 -5.46875 L 3.15625 -5.515625 L 2.84375 -5.5 L 2.65625 -5.453125 L 2.5 -5.375 L 2.34375 -5.265625 L 2.234375 -5.125 L 2.1875 -4.859375 L 2.21875 -4.5625 L 2.375 -4.421875 L 2.734375 -4.234375 L 3.265625 -4.125 L 3.5625 -4.125 L 3.765625 -4.09375 L 3.96875 -4.078125 L 4.171875 -4.046875 L 4.953125 -3.8125 L 5.125 -3.703125 L 5.296875 -3.625 L 5.46875 -3.453125 L 5.734375 -3.15625 L 5.84375 -3 L 5.984375 -2.421875 L 6.015625 -2.09375 L 5.953125 -1.59375 L 5.890625 -1.4375 L 5.828125 -1.25 L 5.71875 -1.03125 L 5.625 -0.890625 L 5.328125 -0.59375 L 4.65625 -0.1875 L 4.453125 -0.09375 L 4.28125 -0.0625 L 4.078125 0.015625 L 3.875 0.046875 L 3.6875 0.09375 L 3.484375 0.109375 Z M 2.6875 0.09375 "/></g></g></g><g fill="#ffffff" fill-opacity="1"><g transform="translate(218.378493, 229.153211)"><g><path d="M 2.609375 0.015625 L 2.296875 0.015625 L 2.015625 -0.09375 L 1.875 -0.3125 L 1.90625 -0.5 L 1.90625 -1.078125 L 1.890625 -1.296875 L 1.90625 -2.09375 L 1.921875 -2.296875 L 1.890625 -3.796875 L 1.90625 -4.0625 L 1.90625 -4.484375 L 1.890625 -4.765625 L 1.90625 -5.09375 L 1.796875 -5.296875 L 1.609375 -5.390625 L 0.65625 -5.40625 L 0.453125 -5.390625 L 0.28125 -5.484375 L 0.1875 -5.671875 L 0.171875 -5.984375 L 0.1875 -6.484375 L 0.1875 -6.6875 L 0.296875 -6.90625 L 0.484375 -7.015625 L 1.1875 -6.96875 L 1.5 -7 L 2.09375 -6.96875 L 2.265625 -7.015625 L 2.484375 -6.984375 L 2.703125 -7.015625 L 2.890625 -7.015625 L 3.09375 -6.96875 L 3.90625 -7.015625 L 4.09375 -6.984375 L 4.296875 -7.015625 L 4.484375 -7 L 5.109375 -7 L 5.296875 -6.875 L 5.40625 -6.671875 L 5.40625 -5.71875 L 5.28125 -5.5 L 5.109375 -5.390625 L 4.9375 -5.40625 L 4.71875 -5.375 L 4.34375 -5.421875 L 3.953125 -5.40625 L 3.765625 -5.28125 L 3.6875 -4.984375 L 3.65625 -4.109375 L 3.6875 -3.90625 L 3.671875 -2.296875 L 3.703125 -2.0625 L 3.6875 -1.890625 L 3.6875 -1.484375 L 3.671875 -1.28125 L 3.703125 -0.90625 L 3.671875 -0.375 L 3.5625 -0.09375 L 3.28125 0 Z M 2.609375 0.015625 "/></g></g></g><g fill="#ffffff" fill-opacity="1"><g transform="translate(226.116278, 229.153211)"><g><path d="M 5.90625 0.015625 L 5.6875 0 L 5.453125 -0.09375 L 5.265625 -0.25 L 5.203125 -0.4375 L 5.109375 -0.625 L 4.921875 -0.78125 L 4.703125 -0.890625 L 4.484375 -0.859375 L 4.296875 -0.875 L 3.3125 -0.875 L 3.140625 -0.90625 L 2.71875 -0.859375 L 2.53125 -0.890625 L 2.3125 -0.78125 L 2.125 -0.59375 L 1.953125 -0.265625 L 1.765625 -0.078125 L 1.53125 -0.015625 L 0.96875 0.015625 L 0.765625 -0.015625 L 0.375 0.015625 L 0.1875 -0.046875 L 0.125 -0.296875 L 0.1875 -0.5 L 0.390625 -0.90625 L 0.4375 -1.078125 L 0.546875 -1.21875 L 0.703125 -1.625 L 0.875 -1.9375 L 0.953125 -2.140625 L 1.046875 -2.296875 L 1.109375 -2.515625 L 2.125 -4.65625 L 2.1875 -4.828125 L 2.296875 -5.015625 L 2.34375 -5.21875 L 2.453125 -5.375 L 2.859375 -6.296875 L 2.953125 -6.4375 L 3.015625 -6.625 L 3.109375 -6.796875 L 3.296875 -6.96875 L 3.609375 -7.078125 L 3.9375 -6.984375 L 4.109375 -6.796875 L 4.296875 -6.453125 L 4.359375 -6.265625 L 4.46875 -6.09375 L 4.53125 -5.890625 L 5.1875 -4.5 L 5.265625 -4.296875 L 5.46875 -3.921875 L 5.53125 -3.765625 L 5.625 -3.609375 L 5.6875 -3.390625 L 5.78125 -3.203125 L 5.875 -3.046875 L 6.265625 -2.140625 L 6.453125 -1.78125 L 6.59375 -1.40625 L 6.875 -0.890625 L 7.015625 -0.515625 L 7.09375 -0.296875 L 7.0625 -0.046875 L 6.78125 0 L 6.46875 0.015625 L 6.28125 -0.015625 Z M 3.625 -2.46875 L 4.03125 -2.484375 L 4.1875 -2.5625 L 4.21875 -2.734375 L 3.75 -3.84375 L 3.609375 -3.921875 L 3.5 -3.828125 L 3.03125 -2.75 L 3.046875 -2.5625 L 3.203125 -2.484375 L 3.4375 -2.515625 Z M 3.625 -2.46875 "/></g></g></g><g fill="#ffffff" fill-opacity="1"><g transform="translate(235.523401, 229.153211)"><g/></g></g><g fill="#ffffff" fill-opacity="1"><g transform="translate(240.382321, 229.153211)"><g><path d="M 3.484375 0.03125 L 3.28125 0.015625 L 3.078125 0.03125 L 2.84375 0.015625 L 2.65625 -0.015625 L 2.25 0.015625 L 2.0625 0 L 1.84375 0.015625 L 1.125 0.015625 L 0.828125 -0.125 L 0.75 -0.390625 L 0.734375 -0.609375 L 0.765625 -1.296875 L 0.734375 -1.5 L 0.75 -1.6875 L 0.765625 -3.3125 L 0.734375 -3.484375 L 0.734375 -4.3125 L 0.765625 -4.5 L 0.734375 -4.703125 L 0.75 -5.6875 L 0.71875 -5.90625 L 0.75 -6.3125 L 0.734375 -6.703125 L 0.84375 -6.90625 L 1.046875 -6.984375 L 1.25 -6.984375 L 1.453125 -7 L 1.625 -6.984375 L 1.8125 -7.015625 L 2.015625 -6.984375 L 2.84375 -7.015625 L 3.046875 -6.984375 L 3.203125 -7 L 3.40625 -6.984375 L 3.625 -7 L 4.4375 -7.015625 L 4.625 -6.96875 L 4.828125 -6.96875 L 5.03125 -6.890625 L 5.125 -6.703125 L 5.140625 -6.09375 L 5.125 -5.90625 L 5.140625 -5.703125 L 5.046875 -5.515625 L 4.828125 -5.40625 L 4.640625 -5.390625 L 3.203125 -5.40625 L 3.015625 -5.375 L 2.828125 -5.375 L 2.609375 -5.296875 L 2.515625 -5.109375 L 2.515625 -4.796875 L 2.59375 -4.484375 L 2.8125 -4.40625 L 3.390625 -4.421875 L 3.8125 -4.390625 L 4.015625 -4.40625 L 4.609375 -4.40625 L 4.84375 -4.28125 L 4.9375 -4 L 4.90625 -3.09375 L 4.84375 -2.90625 L 4.640625 -2.8125 L 4.40625 -2.828125 L 4.203125 -2.8125 L 3.796875 -2.8125 L 3.421875 -2.796875 L 3.09375 -2.828125 L 2.796875 -2.8125 L 2.625 -2.703125 L 2.53125 -2.5 L 2.53125 -1.875 L 2.609375 -1.6875 L 2.8125 -1.59375 L 3.046875 -1.609375 L 3.234375 -1.578125 L 3.453125 -1.59375 L 3.65625 -1.5625 L 3.984375 -1.609375 L 4.484375 -1.59375 L 4.6875 -1.5625 L 4.90625 -1.59375 L 5.125 -1.5 L 5.234375 -1.296875 L 5.234375 -0.296875 L 5.125 -0.078125 L 4.90625 0.015625 Z M 3.484375 0.03125 "/></g></g></g><g fill="#ffffff" fill-opacity="1"><g transform="translate(248.260056, 229.153211)"><g><path d="M 5.90625 -0.171875 L 5.75 -0.296875 L 5.484375 -0.59375 L 3.9375 -2.125 L 3.765625 -2.234375 L 3.640625 -2.390625 L 2.9375 -3.0625 L 2.796875 -3.234375 L 2.671875 -3.296875 L 2.59375 -3.125 L 2.578125 -2.921875 L 2.5625 -0.390625 L 2.46875 -0.078125 L 2.265625 0.015625 L 2.0625 0.03125 L 1.671875 0 L 1.453125 0.015625 L 1.046875 0 L 0.828125 -0.0625 L 0.734375 -0.265625 L 0.71875 -1.09375 L 0.734375 -1.296875 L 0.71875 -2.9375 L 0.75 -3.09375 L 0.734375 -3.515625 L 0.734375 -6.703125 L 0.828125 -6.90625 L 1.0625 -7 L 1.359375 -6.9375 L 1.59375 -6.8125 L 1.734375 -6.6875 L 3.703125 -4.703125 L 3.984375 -4.484375 L 4.703125 -3.765625 L 4.84375 -3.703125 L 4.90625 -3.875 L 4.9375 -5.65625 L 4.90625 -5.875 L 4.9375 -6.296875 L 4.90625 -6.453125 L 4.921875 -6.671875 L 5.03125 -6.875 L 5.21875 -6.984375 L 6.453125 -7 L 6.65625 -6.890625 L 6.765625 -6.6875 L 6.796875 -5.296875 L 6.765625 -5.0625 L 6.765625 -4.0625 L 6.796875 -3.90625 L 6.765625 -0.25 L 6.671875 -0.046875 L 6.453125 0.015625 L 6.171875 -0.015625 Z M 5.90625 -0.171875 "/></g></g></g><g fill="#ffffff" fill-opacity="1"><g transform="translate(257.955299, 229.153211)"><g/></g></g><g fill="#ffffff" fill-opacity="1"><g transform="translate(114.646711, 242.65321)"><g><path d="M 3.484375 0.03125 L 3.28125 0.015625 L 3.078125 0.03125 L 2.84375 0.015625 L 2.65625 -0.015625 L 2.25 0.015625 L 2.0625 0 L 1.84375 0.015625 L 1.125 0.015625 L 0.828125 -0.125 L 0.75 -0.390625 L 0.734375 -0.609375 L 0.765625 -1.296875 L 0.734375 -1.5 L 0.75 -1.6875 L 0.765625 -3.3125 L 0.734375 -3.484375 L 0.734375 -4.3125 L 0.765625 -4.5 L 0.734375 -4.703125 L 0.75 -5.6875 L 0.71875 -5.90625 L 0.75 -6.3125 L 0.734375 -6.703125 L 0.84375 -6.90625 L 1.046875 -6.984375 L 1.25 -6.984375 L 1.453125 -7 L 1.625 -6.984375 L 1.8125 -7.015625 L 2.015625 -6.984375 L 2.84375 -7.015625 L 3.046875 -6.984375 L 3.203125 -7 L 3.40625 -6.984375 L 3.625 -7 L 4.4375 -7.015625 L 4.625 -6.96875 L 4.828125 -6.96875 L 5.03125 -6.890625 L 5.125 -6.703125 L 5.140625 -6.09375 L 5.125 -5.90625 L 5.140625 -5.703125 L 5.046875 -5.515625 L 4.828125 -5.40625 L 4.640625 -5.390625 L 3.203125 -5.40625 L 3.015625 -5.375 L 2.828125 -5.375 L 2.609375 -5.296875 L 2.515625 -5.109375 L 2.515625 -4.796875 L 2.59375 -4.484375 L 2.8125 -4.40625 L 3.390625 -4.421875 L 3.8125 -4.390625 L 4.015625 -4.40625 L 4.609375 -4.40625 L 4.84375 -4.28125 L 4.9375 -4 L 4.90625 -3.09375 L 4.84375 -2.90625 L 4.640625 -2.8125 L 4.40625 -2.828125 L 4.203125 -2.8125 L 3.796875 -2.8125 L 3.421875 -2.796875 L 3.09375 -2.828125 L 2.796875 -2.8125 L 2.625 -2.703125 L 2.53125 -2.5 L 2.53125 -1.875 L 2.609375 -1.6875 L 2.8125 -1.59375 L 3.046875 -1.609375 L 3.234375 -1.578125 L 3.453125 -1.59375 L 3.65625 -1.5625 L 3.984375 -1.609375 L 4.484375 -1.59375 L 4.6875 -1.5625 L 4.90625 -1.59375 L 5.125 -1.5 L 5.234375 -1.296875 L 5.234375 -0.296875 L 5.125 -0.078125 L 4.90625 0.015625 Z M 3.484375 0.03125 "/></g></g></g><g fill="#ffffff" fill-opacity="1"><g transform="translate(122.52445, 242.65321)"><g><path d="M 6.8125 0.125 L 6.625 0.109375 L 6.4375 0.109375 L 6.1875 0.046875 L 5.765625 -0.1875 L 5.5 -0.1875 L 4.890625 -0.015625 L 4.71875 0.046875 L 4.5 0.109375 L 4.296875 0.09375 L 3.984375 0.109375 L 3.296875 0.0625 L 3.109375 0.015625 L 2.90625 -0.046875 L 2.546875 -0.125 L 2.375 -0.234375 L 2.1875 -0.296875 L 1.6875 -0.609375 L 1.234375 -1.015625 L 1.109375 -1.1875 L 0.984375 -1.3125 L 0.90625 -1.5 L 0.78125 -1.671875 L 0.71875 -1.859375 L 0.5625 -2.203125 L 0.40625 -2.796875 L 0.375 -3.1875 L 0.390625 -3.96875 L 0.4375 -4.171875 L 0.453125 -4.375 L 0.5625 -4.765625 L 0.65625 -4.9375 L 0.703125 -5.140625 L 0.78125 -5.296875 L 1.265625 -5.953125 L 1.671875 -6.359375 L 2.53125 -6.84375 L 2.90625 -6.953125 L 3.09375 -6.984375 L 3.296875 -7.046875 L 3.5 -7.078125 L 3.984375 -7.09375 L 4.28125 -7.109375 L 4.671875 -7.0625 L 5.4375 -6.84375 L 6.265625 -6.375 L 6.578125 -6.09375 L 6.703125 -5.96875 L 7.0625 -5.484375 L 7.328125 -4.953125 L 7.515625 -4.375 L 7.546875 -4.171875 L 7.546875 -4 L 7.59375 -3.78125 L 7.609375 -3.5 L 7.59375 -3.15625 L 7.515625 -2.546875 L 7.4375 -2.375 L 7.390625 -2.15625 L 7.21875 -1.78125 L 7.21875 -1.53125 L 7.28125 -1.265625 L 7.40625 -1.125 L 7.53125 -0.9375 L 8.0625 -0.3125 L 8.203125 -0.125 L 8.15625 0.078125 L 7.953125 0.125 L 7.78125 0.125 L 7.578125 0.109375 Z M 3.96875 -1.640625 L 4.46875 -1.6875 L 4.859375 -1.84375 L 5.1875 -2.09375 L 5.328125 -2.234375 L 5.453125 -2.40625 L 5.5625 -2.578125 L 5.640625 -2.796875 L 5.703125 -3.15625 L 5.734375 -3.484375 L 5.703125 -4.015625 L 5.5625 -4.375 L 5.46875 -4.546875 L 5.34375 -4.734375 L 5.03125 -5.015625 L 4.84375 -5.15625 L 4.578125 -5.25 L 4.3125 -5.328125 L 3.671875 -5.359375 L 3.359375 -5.25 L 3.09375 -5.125 L 2.75 -4.90625 L 2.625 -4.765625 L 2.515625 -4.59375 L 2.3125 -4.203125 L 2.234375 -3.796875 L 2.21875 -3.484375 L 2.265625 -2.953125 L 2.3125 -2.765625 L 2.484375 -2.4375 L 2.609375 -2.234375 L 2.921875 -1.9375 L 3.078125 -1.828125 L 3.265625 -1.734375 Z M 3.96875 -1.640625 "/></g></g></g><g fill="#ffffff" fill-opacity="1"><g transform="translate(132.651296, 242.65321)"><g><path d="M 3.4375 0.125 L 3.125 0.109375 L 2.921875 0.109375 L 2.53125 0.03125 L 2.15625 -0.140625 L 2 -0.234375 L 1.796875 -0.3125 L 1.484375 -0.53125 L 1.328125 -0.65625 L 1.203125 -0.796875 L 0.984375 -1.15625 L 0.8125 -1.5 L 0.71875 -1.90625 L 0.65625 -2.703125 L 0.6875 -4.3125 L 0.671875 -4.515625 L 0.703125 -4.703125 L 0.671875 -6.109375 L 0.6875 -6.265625 L 0.6875 -6.515625 L 0.671875 -6.703125 L 0.796875 -6.90625 L 1.015625 -6.984375 L 1.21875 -7.015625 L 1.65625 -6.96875 L 1.84375 -7 L 2.046875 -7 L 2.25 -6.90625 L 2.375 -6.6875 L 2.390625 -6.40625 L 2.375 -6.078125 L 2.390625 -5.9375 L 2.359375 -2.703125 L 2.421875 -2.125 L 2.484375 -1.9375 L 2.59375 -1.78125 L 2.765625 -1.65625 L 2.9375 -1.5625 L 3.15625 -1.515625 L 3.765625 -1.515625 L 4.109375 -1.640625 L 4.28125 -1.765625 L 4.390625 -1.953125 L 4.453125 -2.109375 L 4.515625 -2.734375 L 4.5 -6.671875 L 4.609375 -6.890625 L 4.8125 -6.984375 L 5.234375 -6.953125 L 5.875 -6.984375 L 6.09375 -6.90625 L 6.21875 -6.703125 L 6.1875 -6.5 L 6.1875 -5.671875 L 6.203125 -5.515625 L 6.1875 -5.296875 L 6.203125 -5.09375 L 6.203125 -2.40625 L 6.15625 -1.921875 L 6.0625 -1.5 L 5.96875 -1.328125 L 5.90625 -1.125 L 5.6875 -0.78125 L 5.40625 -0.5 L 5.0625 -0.28125 L 4.703125 -0.09375 L 3.9375 0.109375 L 3.734375 0.09375 Z M 3.4375 0.125 "/></g></g></g><g fill="#ffffff" fill-opacity="1"><g transform="translate(141.698562, 242.65321)"><g><path d="M 3.34375 0.046875 L 3.15625 -0.015625 L 2.65625 -0.015625 L 2.359375 0.03125 L 1.953125 -0.015625 L 1.765625 0.015625 L 1.453125 0.015625 L 1.15625 -0.015625 L 0.96875 0 L 0.78125 0 L 0.578125 -0.09375 L 0.484375 -0.359375 L 0.515625 -1.28125 L 0.625 -1.453125 L 1.28125 -1.65625 L 1.390625 -1.953125 L 1.359375 -5.03125 L 1.265625 -5.296875 L 1.078125 -5.421875 L 0.875 -5.421875 L 0.65625 -5.53125 L 0.546875 -5.734375 L 0.5625 -5.921875 L 0.546875 -6.65625 L 0.640625 -6.90625 L 0.84375 -7 L 1.0625 -7 L 1.265625 -6.96875 L 2.078125 -6.96875 L 2.28125 -7.015625 L 2.453125 -6.984375 L 3.671875 -6.984375 L 3.84375 -6.875 L 3.96875 -6.6875 L 3.953125 -5.703125 L 3.859375 -5.546875 L 3.65625 -5.453125 L 3.453125 -5.4375 L 3.234375 -5.34375 L 3.15625 -5.109375 L 3.125 -4.09375 L 3.15625 -3.375 L 3.140625 -3.15625 L 3.15625 -2.0625 L 3.125 -1.875 L 3.234375 -1.640625 L 3.484375 -1.5625 L 3.6875 -1.5625 L 3.90625 -1.453125 L 4.03125 -1.265625 L 4.03125 -0.265625 L 3.9375 -0.078125 L 3.75 0.015625 Z M 3.34375 0.046875 "/></g></g></g><g fill="#ffffff" fill-opacity="1"><g transform="translate(148.38677, 242.65321)"><g><path d="M 1.34375 0.03125 L 1.15625 0.015625 L 0.84375 -0.078125 L 0.734375 -0.265625 L 0.75 -2.125 L 0.734375 -2.3125 L 0.734375 -4.90625 L 0.71875 -5.09375 L 0.765625 -5.484375 L 0.75 -6.703125 L 0.84375 -6.859375 L 1.046875 -6.96875 L 1.265625 -7.015625 L 1.4375 -6.984375 L 1.65625 -6.96875 L 2.28125 -7.015625 L 2.484375 -6.984375 L 3.09375 -6.96875 L 3.3125 -7 L 3.625 -7.015625 L 3.9375 -7 L 4.125 -6.9375 L 4.328125 -6.9375 L 4.5 -6.859375 L 4.90625 -6.734375 L 5.234375 -6.515625 L 5.6875 -6.125 L 5.921875 -5.796875 L 6.109375 -5.453125 L 6.234375 -5.09375 L 6.265625 -4.875 L 6.296875 -4.703125 L 6.28125 -3.875 L 6.21875 -3.71875 L 6.1875 -3.5 L 6.015625 -3.109375 L 5.8125 -2.796875 L 5.6875 -2.640625 L 5.546875 -2.515625 L 5.40625 -2.34375 L 5.265625 -2.234375 L 4.3125 -1.84375 L 3.28125 -1.765625 L 3.0625 -1.8125 L 2.84375 -1.796875 L 2.625 -1.6875 L 2.53125 -1.5 L 2.546875 -1.265625 L 2.515625 -1.078125 L 2.546875 -0.703125 L 2.53125 -0.484375 L 2.546875 -0.296875 L 2.453125 -0.078125 L 2.234375 0 L 2.015625 0.015625 L 1.828125 0.015625 Z M 2.84375 -3.390625 L 3.078125 -3.40625 L 3.59375 -3.40625 L 3.90625 -3.4375 L 4.0625 -3.484375 L 4.21875 -3.609375 L 4.34375 -3.765625 L 4.4375 -3.9375 L 4.515625 -4.109375 L 4.53125 -4.375 L 4.515625 -4.65625 L 4.484375 -4.84375 L 4.375 -5.046875 L 4.25 -5.171875 L 4.09375 -5.28125 L 3.890625 -5.375 L 2.84375 -5.40625 L 2.640625 -5.296875 L 2.546875 -5.109375 L 2.546875 -4.703125 L 2.515625 -4.484375 L 2.546875 -3.6875 L 2.640625 -3.515625 Z M 2.84375 -3.390625 "/></g></g></g><g fill="#ffffff" fill-opacity="1"><g transform="translate(157.114165, 242.65321)"><g><path d="M 4.015625 0.125 L 3.40625 0.09375 L 2.5625 -0.15625 L 2.375 -0.234375 L 1.6875 -0.59375 L 1.5625 -0.734375 L 1.28125 -1.015625 L 0.8125 -1.65625 L 0.703125 -1.828125 L 0.65625 -2.046875 L 0.5 -2.375 L 0.390625 -3.015625 L 0.4375 -4.171875 L 0.515625 -4.59375 L 0.703125 -5.15625 L 0.796875 -5.3125 L 1.125 -5.8125 L 1.40625 -6.125 L 1.71875 -6.34375 L 1.859375 -6.453125 L 2.375 -6.78125 L 2.75 -6.875 L 2.9375 -6.953125 L 3.125 -7.015625 L 3.328125 -7.0625 L 4.03125 -7.09375 L 4.5 -7.09375 L 5.8125 -6.6875 L 6.3125 -6.359375 L 6.75 -5.96875 L 6.875 -5.796875 L 7 -5.671875 L 7.125 -5.5 L 7.203125 -5.3125 L 7.375 -4.984375 L 7.4375 -4.765625 L 7.515625 -4.546875 L 7.59375 -4.1875 L 7.640625 -3.484375 L 7.59375 -2.796875 L 7.546875 -2.5625 L 7.484375 -2.40625 L 7.453125 -2.203125 L 7.390625 -2.015625 L 7 -1.328125 L 6.875 -1.15625 L 6.171875 -0.484375 L 5.28125 -0.078125 L 4.90625 0.046875 Z M 3.734375 -1.625 L 4.3125 -1.65625 L 4.5 -1.703125 L 4.6875 -1.71875 L 4.84375 -1.8125 L 5.015625 -1.890625 L 5.328125 -2.125 L 5.546875 -2.453125 L 5.65625 -2.609375 L 5.734375 -3.015625 L 5.796875 -3.515625 L 5.765625 -3.953125 L 5.6875 -4.125 L 5.625 -4.328125 L 5.546875 -4.515625 L 5.3125 -4.84375 L 5.015625 -5.078125 L 4.484375 -5.3125 L 4 -5.34375 L 3.546875 -5.296875 L 3.328125 -5.25 L 3.15625 -5.15625 L 2.859375 -4.953125 L 2.703125 -4.828125 L 2.578125 -4.671875 L 2.484375 -4.5 L 2.375 -4.359375 L 2.3125 -4.1875 L 2.234375 -3.8125 L 2.234375 -3.515625 L 2.28125 -3.015625 L 2.46875 -2.453125 L 2.59375 -2.3125 L 2.703125 -2.171875 L 3.015625 -1.90625 L 3.34375 -1.71875 L 3.53125 -1.703125 Z M 3.734375 -1.625 "/></g></g></g><g fill="#ffffff" fill-opacity="1"><g transform="translate(167.280998, 242.65321)"><g><path d="M 2.6875 0.09375 L 2.28125 0.015625 L 1.890625 -0.125 L 1.6875 -0.1875 L 1.5 -0.265625 L 1.359375 -0.421875 L 1.015625 -0.640625 L 0.875 -0.796875 L 0.734375 -0.921875 L 0.546875 -1.296875 L 0.484375 -1.46875 L 0.421875 -1.875 L 0.5 -2.078125 L 0.6875 -2.15625 L 1.453125 -2.203125 L 1.640625 -2.171875 L 1.8125 -2.1875 L 2.015625 -2.109375 L 2.34375 -1.75 L 2.515625 -1.640625 L 2.6875 -1.546875 L 3.203125 -1.5 L 3.375 -1.53125 L 3.6875 -1.546875 L 4.03125 -1.703125 L 4.15625 -1.84375 L 4.234375 -2.09375 L 4.1875 -2.34375 L 4.046875 -2.46875 L 3.6875 -2.640625 L 2.125 -2.8125 L 1.765625 -2.9375 L 1.078125 -3.3125 L 0.703125 -3.765625 L 0.546875 -4.125 L 0.484375 -4.515625 L 0.46875 -4.828125 L 0.5 -5.3125 L 0.6875 -5.875 L 1.03125 -6.34375 L 1.515625 -6.671875 L 1.84375 -6.875 L 2.234375 -6.984375 L 2.40625 -7.015625 L 2.609375 -7.03125 L 2.828125 -7.09375 L 3.59375 -7.0625 L 3.984375 -6.984375 L 4.546875 -6.796875 L 5.203125 -6.34375 L 5.4375 -6.046875 L 5.703125 -5.515625 L 5.765625 -5.140625 L 5.6875 -4.96875 L 5.5 -4.828125 L 5.3125 -4.84375 L 5.125 -4.84375 L 4.84375 -4.875 L 4.375 -4.828125 L 4.15625 -4.953125 L 4.015625 -5.15625 L 3.84375 -5.296875 L 3.65625 -5.421875 L 3.484375 -5.46875 L 3.15625 -5.515625 L 2.84375 -5.5 L 2.65625 -5.453125 L 2.5 -5.375 L 2.34375 -5.265625 L 2.234375 -5.125 L 2.1875 -4.859375 L 2.21875 -4.5625 L 2.375 -4.421875 L 2.734375 -4.234375 L 3.265625 -4.125 L 3.5625 -4.125 L 3.765625 -4.09375 L 3.96875 -4.078125 L 4.171875 -4.046875 L 4.953125 -3.8125 L 5.125 -3.703125 L 5.296875 -3.625 L 5.46875 -3.453125 L 5.734375 -3.15625 L 5.84375 -3 L 5.984375 -2.421875 L 6.015625 -2.09375 L 5.953125 -1.59375 L 5.890625 -1.4375 L 5.828125 -1.25 L 5.71875 -1.03125 L 5.625 -0.890625 L 5.328125 -0.59375 L 4.65625 -0.1875 L 4.453125 -0.09375 L 4.28125 -0.0625 L 4.078125 0.015625 L 3.875 0.046875 L 3.6875 0.09375 L 3.484375 0.109375 Z M 2.6875 0.09375 "/></g></g></g><g fill="#ffffff" fill-opacity="1"><g transform="translate(175.808477, 242.65321)"><g/></g></g><g fill="#ffffff" fill-opacity="1"><g transform="translate(180.667403, 242.65321)"><g><path d="M 3.078125 0.03125 L 2.671875 -0.015625 L 2.46875 0.015625 L 1.25 0 L 1.046875 0.015625 L 0.84375 -0.078125 L 0.75 -0.390625 L 0.75 -0.90625 L 0.734375 -1.09375 L 0.734375 -6.6875 L 0.828125 -6.890625 L 1.046875 -6.984375 L 1.25 -6.96875 L 1.4375 -7 L 3.703125 -6.984375 L 4.296875 -6.890625 L 4.515625 -6.84375 L 4.6875 -6.765625 L 4.875 -6.71875 L 5.0625 -6.609375 L 5.578125 -6.265625 L 6.109375 -5.6875 L 6.453125 -5.15625 L 6.53125 -4.953125 L 6.65625 -4.578125 L 6.796875 -3.796875 L 6.8125 -3.5 L 6.78125 -3.1875 L 6.78125 -2.96875 L 6.75 -2.765625 L 6.6875 -2.59375 L 6.65625 -2.390625 L 6.59375 -2.203125 L 6.4375 -1.8125 L 6.3125 -1.65625 L 6.21875 -1.453125 L 5.734375 -0.8125 L 5.0625 -0.375 L 4.59375 -0.171875 L 4.1875 -0.09375 L 3.890625 -0.015625 L 3.6875 -0.015625 L 3.375 0.03125 Z M 3.046875 -1.609375 L 3.34375 -1.625 L 3.78125 -1.671875 L 4.0625 -1.765625 L 4.40625 -1.984375 L 4.78125 -2.40625 L 4.953125 -2.765625 L 5.046875 -3.46875 L 4.890625 -4.34375 L 4.796875 -4.53125 L 4.703125 -4.703125 L 4.546875 -4.875 L 4.40625 -5.015625 L 4.25 -5.125 L 4.0625 -5.21875 L 3.6875 -5.328125 L 3.390625 -5.359375 L 2.96875 -5.34375 L 2.65625 -5.28125 L 2.546875 -5.046875 L 2.53125 -4.875 L 2.546875 -3.5 L 2.515625 -3 L 2.546875 -2.515625 L 2.546875 -1.9375 L 2.625 -1.734375 L 2.859375 -1.625 Z M 3.046875 -1.609375 "/></g></g></g><g fill="#ffffff" fill-opacity="1"><g transform="translate(190.084534, 242.65321)"><g><path d="M 3.484375 0.03125 L 3.28125 0.015625 L 3.078125 0.03125 L 2.84375 0.015625 L 2.65625 -0.015625 L 2.25 0.015625 L 2.0625 0 L 1.84375 0.015625 L 1.125 0.015625 L 0.828125 -0.125 L 0.75 -0.390625 L 0.734375 -0.609375 L 0.765625 -1.296875 L 0.734375 -1.5 L 0.75 -1.6875 L 0.765625 -3.3125 L 0.734375 -3.484375 L 0.734375 -4.3125 L 0.765625 -4.5 L 0.734375 -4.703125 L 0.75 -5.6875 L 0.71875 -5.90625 L 0.75 -6.3125 L 0.734375 -6.703125 L 0.84375 -6.90625 L 1.046875 -6.984375 L 1.25 -6.984375 L 1.453125 -7 L 1.625 -6.984375 L 1.8125 -7.015625 L 2.015625 -6.984375 L 2.84375 -7.015625 L 3.046875 -6.984375 L 3.203125 -7 L 3.40625 -6.984375 L 3.625 -7 L 4.4375 -7.015625 L 4.625 -6.96875 L 4.828125 -6.96875 L 5.03125 -6.890625 L 5.125 -6.703125 L 5.140625 -6.09375 L 5.125 -5.90625 L 5.140625 -5.703125 L 5.046875 -5.515625 L 4.828125 -5.40625 L 4.640625 -5.390625 L 3.203125 -5.40625 L 3.015625 -5.375 L 2.828125 -5.375 L 2.609375 -5.296875 L 2.515625 -5.109375 L 2.515625 -4.796875 L 2.59375 -4.484375 L 2.8125 -4.40625 L 3.390625 -4.421875 L 3.8125 -4.390625 L 4.015625 -4.40625 L 4.609375 -4.40625 L 4.84375 -4.28125 L 4.9375 -4 L 4.90625 -3.09375 L 4.84375 -2.90625 L 4.640625 -2.8125 L 4.40625 -2.828125 L 4.203125 -2.8125 L 3.796875 -2.8125 L 3.421875 -2.796875 L 3.09375 -2.828125 L 2.796875 -2.8125 L 2.625 -2.703125 L 2.53125 -2.5 L 2.53125 -1.875 L 2.609375 -1.6875 L 2.8125 -1.59375 L 3.046875 -1.609375 L 3.234375 -1.578125 L 3.453125 -1.59375 L 3.65625 -1.5625 L 3.984375 -1.609375 L 4.484375 -1.59375 L 4.6875 -1.5625 L 4.90625 -1.59375 L 5.125 -1.5 L 5.234375 -1.296875 L 5.234375 -0.296875 L 5.125 -0.078125 L 4.90625 0.015625 Z M 3.484375 0.03125 "/></g></g></g><g fill="#ffffff" fill-opacity="1"><g transform="translate(197.962274, 242.65321)"><g/></g></g><g fill="#ffffff" fill-opacity="1"><g transform="translate(202.821201, 242.65321)"><g><path d="M 0.765625 -0.359375 L 0.75 -4.109375 L 0.734375 -4.296875 L 0.71875 -4.515625 L 0.75 -4.890625 L 0.734375 -5.09375 L 0.75 -5.28125 L 0.75 -6.6875 L 0.84375 -6.90625 L 1.046875 -6.984375 L 1.234375 -7.015625 L 1.640625 -6.96875 L 1.84375 -7.015625 L 2.234375 -7.015625 L 2.4375 -6.890625 L 2.53125 -6.671875 L 2.515625 -6.484375 L 2.546875 -5.90625 L 2.53125 -5.515625 L 2.546875 -5.265625 L 2.546875 -1.875 L 2.625 -1.6875 L 2.8125 -1.59375 L 3.03125 -1.625 L 3.421875 -1.59375 L 3.59375 -1.625 L 3.796875 -1.59375 L 4.203125 -1.59375 L 4.421875 -1.5625 L 4.609375 -1.609375 L 4.8125 -1.625 L 5 -1.515625 L 5.09375 -1.203125 L 5.09375 -0.40625 L 4.984375 -0.09375 L 4.796875 0.015625 L 2.8125 0 L 2.59375 0.015625 L 2.40625 -0.015625 L 2.03125 0.015625 L 1.640625 -0.015625 L 1.21875 0.015625 L 1.015625 0 L 0.828125 -0.09375 Z M 0.765625 -0.359375 "/></g></g></g><g fill="#ffffff" fill-opacity="1"><g transform="translate(210.349072, 242.65321)"><g><path d="M 5.90625 0.015625 L 5.6875 0 L 5.453125 -0.09375 L 5.265625 -0.25 L 5.203125 -0.4375 L 5.109375 -0.625 L 4.921875 -0.78125 L 4.703125 -0.890625 L 4.484375 -0.859375 L 4.296875 -0.875 L 3.3125 -0.875 L 3.140625 -0.90625 L 2.71875 -0.859375 L 2.53125 -0.890625 L 2.3125 -0.78125 L 2.125 -0.59375 L 1.953125 -0.265625 L 1.765625 -0.078125 L 1.53125 -0.015625 L 0.96875 0.015625 L 0.765625 -0.015625 L 0.375 0.015625 L 0.1875 -0.046875 L 0.125 -0.296875 L 0.1875 -0.5 L 0.390625 -0.90625 L 0.4375 -1.078125 L 0.546875 -1.21875 L 0.703125 -1.625 L 0.875 -1.9375 L 0.953125 -2.140625 L 1.046875 -2.296875 L 1.109375 -2.515625 L 2.125 -4.65625 L 2.1875 -4.828125 L 2.296875 -5.015625 L 2.34375 -5.21875 L 2.453125 -5.375 L 2.859375 -6.296875 L 2.953125 -6.4375 L 3.015625 -6.625 L 3.109375 -6.796875 L 3.296875 -6.96875 L 3.609375 -7.078125 L 3.9375 -6.984375 L 4.109375 -6.796875 L 4.296875 -6.453125 L 4.359375 -6.265625 L 4.46875 -6.09375 L 4.53125 -5.890625 L 5.1875 -4.5 L 5.265625 -4.296875 L 5.46875 -3.921875 L 5.53125 -3.765625 L 5.625 -3.609375 L 5.6875 -3.390625 L 5.78125 -3.203125 L 5.875 -3.046875 L 6.265625 -2.140625 L 6.453125 -1.78125 L 6.59375 -1.40625 L 6.875 -0.890625 L 7.015625 -0.515625 L 7.09375 -0.296875 L 7.0625 -0.046875 L 6.78125 0 L 6.46875 0.015625 L 6.28125 -0.015625 Z M 3.625 -2.46875 L 4.03125 -2.484375 L 4.1875 -2.5625 L 4.21875 -2.734375 L 3.75 -3.84375 L 3.609375 -3.921875 L 3.5 -3.828125 L 3.03125 -2.75 L 3.046875 -2.5625 L 3.203125 -2.484375 L 3.4375 -2.515625 Z M 3.625 -2.46875 "/></g></g></g><g fill="#ffffff" fill-opacity="1"><g transform="translate(219.756201, 242.65321)"><g><path d="M 3.4375 0.09375 L 3.25 0.0625 L 3.03125 -0.015625 L 2.828125 -0.1875 L 2.734375 -0.34375 L 2.34375 -1.296875 L 2.296875 -1.484375 L 2.1875 -1.671875 L 2.015625 -2.015625 L 1.9375 -2.21875 L 1.6875 -2.734375 L 1.625 -2.9375 L 0.734375 -4.953125 L 0.65625 -5.171875 L 0.546875 -5.3125 L 0.46875 -5.515625 L 0.421875 -5.703125 L 0.3125 -5.859375 L 0 -6.703125 L 0.078125 -6.90625 L 0.234375 -6.984375 L 0.625 -6.984375 L 0.8125 -7.015625 L 1.390625 -6.984375 L 1.625 -6.890625 L 1.796875 -6.71875 L 2.0625 -5.953125 L 2.328125 -5.4375 L 2.828125 -4.125 L 3 -3.796875 L 3.046875 -3.59375 L 3.296875 -3.0625 L 3.40625 -3.046875 L 3.5 -3.21875 L 3.703125 -3.78125 L 3.796875 -3.953125 L 3.84375 -4.140625 L 3.9375 -4.3125 L 3.984375 -4.515625 L 4.921875 -6.71875 L 5.09375 -6.890625 L 5.3125 -7.015625 L 5.6875 -6.984375 L 5.890625 -6.984375 L 6.078125 -7.015625 L 6.265625 -6.984375 L 6.46875 -6.953125 L 6.65625 -6.921875 L 6.703125 -6.703125 L 6.625 -6.4375 L 6.4375 -6.09375 L 6.390625 -5.90625 L 6.21875 -5.546875 L 6.125 -5.359375 L 5.25 -3.296875 L 5.0625 -2.984375 L 5 -2.765625 L 4.609375 -1.84375 L 4.5 -1.671875 L 4.4375 -1.5 L 4.34375 -1.296875 L 4.28125 -1.09375 L 4.09375 -0.765625 L 4.03125 -0.5625 L 3.90625 -0.28125 L 3.6875 0.015625 Z M 3.4375 0.09375 "/></g></g></g><g fill="#ffffff" fill-opacity="1"><g transform="translate(228.643533, 242.65321)"><g><path d="M 5.90625 0.015625 L 5.6875 0 L 5.453125 -0.09375 L 5.265625 -0.25 L 5.203125 -0.4375 L 5.109375 -0.625 L 4.921875 -0.78125 L 4.703125 -0.890625 L 4.484375 -0.859375 L 4.296875 -0.875 L 3.3125 -0.875 L 3.140625 -0.90625 L 2.71875 -0.859375 L 2.53125 -0.890625 L 2.3125 -0.78125 L 2.125 -0.59375 L 1.953125 -0.265625 L 1.765625 -0.078125 L 1.53125 -0.015625 L 0.96875 0.015625 L 0.765625 -0.015625 L 0.375 0.015625 L 0.1875 -0.046875 L 0.125 -0.296875 L 0.1875 -0.5 L 0.390625 -0.90625 L 0.4375 -1.078125 L 0.546875 -1.21875 L 0.703125 -1.625 L 0.875 -1.9375 L 0.953125 -2.140625 L 1.046875 -2.296875 L 1.109375 -2.515625 L 2.125 -4.65625 L 2.1875 -4.828125 L 2.296875 -5.015625 L 2.34375 -5.21875 L 2.453125 -5.375 L 2.859375 -6.296875 L 2.953125 -6.4375 L 3.015625 -6.625 L 3.109375 -6.796875 L 3.296875 -6.96875 L 3.609375 -7.078125 L 3.9375 -6.984375 L 4.109375 -6.796875 L 4.296875 -6.453125 L 4.359375 -6.265625 L 4.46875 -6.09375 L 4.53125 -5.890625 L 5.1875 -4.5 L 5.265625 -4.296875 L 5.46875 -3.921875 L 5.53125 -3.765625 L 5.625 -3.609375 L 5.6875 -3.390625 L 5.78125 -3.203125 L 5.875 -3.046875 L 6.265625 -2.140625 L 6.453125 -1.78125 L 6.59375 -1.40625 L 6.875 -0.890625 L 7.015625 -0.515625 L 7.09375 -0.296875 L 7.0625 -0.046875 L 6.78125 0 L 6.46875 0.015625 L 6.28125 -0.015625 Z M 3.625 -2.46875 L 4.03125 -2.484375 L 4.1875 -2.5625 L 4.21875 -2.734375 L 3.75 -3.84375 L 3.609375 -3.921875 L 3.5 -3.828125 L 3.03125 -2.75 L 3.046875 -2.5625 L 3.203125 -2.484375 L 3.4375 -2.515625 Z M 3.625 -2.46875 "/></g></g></g><g fill="#ffffff" fill-opacity="1"><g transform="translate(238.050656, 242.65321)"><g><path d="M 3.078125 0.03125 L 2.671875 -0.015625 L 2.46875 0.015625 L 1.25 0 L 1.046875 0.015625 L 0.84375 -0.078125 L 0.75 -0.390625 L 0.75 -0.90625 L 0.734375 -1.09375 L 0.734375 -6.6875 L 0.828125 -6.890625 L 1.046875 -6.984375 L 1.25 -6.96875 L 1.4375 -7 L 3.703125 -6.984375 L 4.296875 -6.890625 L 4.515625 -6.84375 L 4.6875 -6.765625 L 4.875 -6.71875 L 5.0625 -6.609375 L 5.578125 -6.265625 L 6.109375 -5.6875 L 6.453125 -5.15625 L 6.53125 -4.953125 L 6.65625 -4.578125 L 6.796875 -3.796875 L 6.8125 -3.5 L 6.78125 -3.1875 L 6.78125 -2.96875 L 6.75 -2.765625 L 6.6875 -2.59375 L 6.65625 -2.390625 L 6.59375 -2.203125 L 6.4375 -1.8125 L 6.3125 -1.65625 L 6.21875 -1.453125 L 5.734375 -0.8125 L 5.0625 -0.375 L 4.59375 -0.171875 L 4.1875 -0.09375 L 3.890625 -0.015625 L 3.6875 -0.015625 L 3.375 0.03125 Z M 3.046875 -1.609375 L 3.34375 -1.625 L 3.78125 -1.671875 L 4.0625 -1.765625 L 4.40625 -1.984375 L 4.78125 -2.40625 L 4.953125 -2.765625 L 5.046875 -3.46875 L 4.890625 -4.34375 L 4.796875 -4.53125 L 4.703125 -4.703125 L 4.546875 -4.875 L 4.40625 -5.015625 L 4.25 -5.125 L 4.0625 -5.21875 L 3.6875 -5.328125 L 3.390625 -5.359375 L 2.96875 -5.34375 L 2.65625 -5.28125 L 2.546875 -5.046875 L 2.53125 -4.875 L 2.546875 -3.5 L 2.515625 -3 L 2.546875 -2.515625 L 2.546875 -1.9375 L 2.625 -1.734375 L 2.859375 -1.625 Z M 3.046875 -1.609375 "/></g></g></g><g fill="#ffffff" fill-opacity="1"><g transform="translate(247.467781, 242.65321)"><g><path d="M 4.015625 0.125 L 3.40625 0.09375 L 2.5625 -0.15625 L 2.375 -0.234375 L 1.6875 -0.59375 L 1.5625 -0.734375 L 1.28125 -1.015625 L 0.8125 -1.65625 L 0.703125 -1.828125 L 0.65625 -2.046875 L 0.5 -2.375 L 0.390625 -3.015625 L 0.4375 -4.171875 L 0.515625 -4.59375 L 0.703125 -5.15625 L 0.796875 -5.3125 L 1.125 -5.8125 L 1.40625 -6.125 L 1.71875 -6.34375 L 1.859375 -6.453125 L 2.375 -6.78125 L 2.75 -6.875 L 2.9375 -6.953125 L 3.125 -7.015625 L 3.328125 -7.0625 L 4.03125 -7.09375 L 4.5 -7.09375 L 5.8125 -6.6875 L 6.3125 -6.359375 L 6.75 -5.96875 L 6.875 -5.796875 L 7 -5.671875 L 7.125 -5.5 L 7.203125 -5.3125 L 7.375 -4.984375 L 7.4375 -4.765625 L 7.515625 -4.546875 L 7.59375 -4.1875 L 7.640625 -3.484375 L 7.59375 -2.796875 L 7.546875 -2.5625 L 7.484375 -2.40625 L 7.453125 -2.203125 L 7.390625 -2.015625 L 7 -1.328125 L 6.875 -1.15625 L 6.171875 -0.484375 L 5.28125 -0.078125 L 4.90625 0.046875 Z M 3.734375 -1.625 L 4.3125 -1.65625 L 4.5 -1.703125 L 4.6875 -1.71875 L 4.84375 -1.8125 L 5.015625 -1.890625 L 5.328125 -2.125 L 5.546875 -2.453125 L 5.65625 -2.609375 L 5.734375 -3.015625 L 5.796875 -3.515625 L 5.765625 -3.953125 L 5.6875 -4.125 L 5.625 -4.328125 L 5.546875 -4.515625 L 5.3125 -4.84375 L 5.015625 -5.078125 L 4.484375 -5.3125 L 4 -5.34375 L 3.546875 -5.296875 L 3.328125 -5.25 L 3.15625 -5.15625 L 2.859375 -4.953125 L 2.703125 -4.828125 L 2.578125 -4.671875 L 2.484375 -4.5 L 2.375 -4.359375 L 2.3125 -4.1875 L 2.234375 -3.8125 L 2.234375 -3.515625 L 2.28125 -3.015625 L 2.46875 -2.453125 L 2.59375 -2.3125 L 2.703125 -2.171875 L 3.015625 -1.90625 L 3.34375 -1.71875 L 3.53125 -1.703125 Z M 3.734375 -1.625 "/></g></g></g><g fill="#ffffff" fill-opacity="1"><g transform="translate(257.638889, 242.65321)"><g/></g></g><g fill="#ffffff" fill-opacity="1"><g transform="translate(98.34856, 189.784015)"><g><path d="M 7.109375 -6.4375 L 2.859375 -6.4375 L 2.859375 -4.84375 L 6.6875 -4.84375 L 6.6875 -3.234375 L 2.859375 -3.234375 L 2.859375 -1.609375 L 7.234375 -1.609375 L 7.234375 0 L 0.8125 0 L 0.8125 -8.046875 L 7.109375 -8.046875 Z M 7.109375 -6.4375 "/></g></g></g><g fill="#ffffff" fill-opacity="1"><g transform="translate(108.169042, 189.784015)"><g><path d="M 3.90625 -8.140625 C 5.101562 -8.140625 6.160156 -7.84375 7.078125 -7.25 L 6.296875 -5.640625 C 5.878906 -5.890625 5.425781 -6.09375 4.9375 -6.25 C 4.457031 -6.40625 4.050781 -6.484375 3.71875 -6.484375 C 3.132812 -6.484375 2.84375 -6.289062 2.84375 -5.90625 C 2.84375 -5.644531 2.988281 -5.4375 3.28125 -5.28125 C 3.570312 -5.132812 3.925781 -5.003906 4.34375 -4.890625 C 4.757812 -4.773438 5.175781 -4.640625 5.59375 -4.484375 C 6.007812 -4.328125 6.363281 -4.070312 6.65625 -3.71875 C 6.945312 -3.375 7.09375 -2.929688 7.09375 -2.390625 C 7.09375 -1.617188 6.789062 -1.015625 6.1875 -0.578125 C 5.582031 -0.148438 4.8125 0.0625 3.875 0.0625 C 3.207031 0.0625 2.546875 -0.0507812 1.890625 -0.28125 C 1.242188 -0.507812 0.679688 -0.820312 0.203125 -1.21875 L 0.984375 -2.796875 C 1.390625 -2.441406 1.867188 -2.148438 2.421875 -1.921875 C 2.972656 -1.703125 3.46875 -1.59375 3.90625 -1.59375 C 4.226562 -1.59375 4.476562 -1.648438 4.65625 -1.765625 C 4.84375 -1.878906 4.9375 -2.050781 4.9375 -2.28125 C 4.9375 -2.507812 4.832031 -2.695312 4.625 -2.84375 C 4.414062 -3 4.15625 -3.109375 3.84375 -3.171875 C 3.53125 -3.242188 3.1875 -3.34375 2.8125 -3.46875 C 2.445312 -3.59375 2.109375 -3.726562 1.796875 -3.875 C 1.484375 -4.019531 1.21875 -4.25 1 -4.5625 C 0.789062 -4.882812 0.6875 -5.269531 0.6875 -5.71875 C 0.6875 -6.445312 0.976562 -7.03125 1.5625 -7.46875 C 2.15625 -7.914062 2.9375 -8.140625 3.90625 -8.140625 Z M 3.90625 -8.140625 "/></g></g></g><g fill="#ffffff" fill-opacity="1"><g transform="translate(117.644633, 189.784015)"><g><path d="M 6.953125 -6.40625 L 4.53125 -6.40625 L 4.53125 0 L 2.484375 0 L 2.484375 -6.40625 L 0.078125 -6.40625 L 0.078125 -8.0625 L 6.953125 -8.0625 Z M 6.953125 -6.40625 "/></g></g></g><g fill="#ffffff" fill-opacity="1"><g transform="translate(126.740853, 189.784015)"><g><path d="M 0.8125 -8.046875 L 4.265625 -8.046875 C 5.523438 -8.046875 6.550781 -7.671875 7.34375 -6.921875 C 8.144531 -6.179688 8.546875 -5.21875 8.546875 -4.03125 C 8.546875 -2.84375 8.140625 -1.875 7.328125 -1.125 C 6.523438 -0.375 5.476562 0 4.1875 0 L 0.8125 0 Z M 2.859375 -6.421875 L 2.859375 -1.640625 L 4.3125 -1.640625 C 4.9375 -1.640625 5.453125 -1.859375 5.859375 -2.296875 C 6.265625 -2.734375 6.46875 -3.304688 6.46875 -4.015625 C 6.46875 -4.722656 6.253906 -5.300781 5.828125 -5.75 C 5.410156 -6.195312 4.875 -6.421875 4.21875 -6.421875 Z M 2.859375 -6.421875 "/></g></g></g><g fill="#ffffff" fill-opacity="1"><g transform="translate(239.426269, 189.784015)"><g><path d="M 3.515625 -8.140625 C 4.316406 -8.140625 4.972656 -7.945312 5.484375 -7.5625 C 6.003906 -7.175781 6.265625 -6.664062 6.265625 -6.03125 C 6.265625 -5.28125 5.757812 -4.390625 4.75 -3.359375 L 3.109375 -1.625 L 6.515625 -1.625 L 6.515625 0 L 0.484375 0 L 0.484375 -1.328125 L 3.359375 -4.375 C 3.867188 -4.90625 4.125 -5.363281 4.125 -5.75 C 4.125 -5.976562 4.039062 -6.15625 3.875 -6.28125 C 3.71875 -6.414062 3.5 -6.484375 3.21875 -6.484375 C 2.550781 -6.484375 1.820312 -6.144531 1.03125 -5.46875 L 0.25 -6.9375 C 1.320312 -7.738281 2.410156 -8.140625 3.515625 -8.140625 Z M 3.515625 -8.140625 "/></g></g></g><g fill="#ffffff" fill-opacity="1"><g transform="translate(248.396031, 189.784015)"><g><path d="M 4.046875 -8.125 C 5.191406 -8.125 6.066406 -7.769531 6.671875 -7.0625 C 7.285156 -6.351562 7.59375 -5.34375 7.59375 -4.03125 C 7.59375 -2.71875 7.285156 -1.707031 6.671875 -1 C 6.066406 -0.289062 5.191406 0.0625 4.046875 0.0625 C 2.898438 0.0625 2.015625 -0.289062 1.390625 -1 C 0.773438 -1.707031 0.46875 -2.71875 0.46875 -4.03125 C 0.46875 -5.34375 0.773438 -6.351562 1.390625 -7.0625 C 2.015625 -7.769531 2.898438 -8.125 4.046875 -8.125 Z M 4.046875 -6.625 C 3.523438 -6.625 3.148438 -6.421875 2.921875 -6.015625 C 2.691406 -5.617188 2.578125 -4.957031 2.578125 -4.03125 C 2.578125 -3.113281 2.691406 -2.453125 2.921875 -2.046875 C 3.148438 -1.640625 3.523438 -1.4375 4.046875 -1.4375 C 4.554688 -1.4375 4.925781 -1.640625 5.15625 -2.046875 C 5.394531 -2.460938 5.515625 -3.125 5.515625 -4.03125 C 5.515625 -4.945312 5.394531 -5.609375 5.15625 -6.015625 C 4.925781 -6.421875 4.554688 -6.625 4.046875 -6.625 Z M 4.046875 -6.625 "/></g></g></g><g fill="#ffffff" fill-opacity="1"><g transform="translate(258.54989, 189.784015)"><g><path d="M 3.515625 -8.140625 C 4.316406 -8.140625 4.972656 -7.945312 5.484375 -7.5625 C 6.003906 -7.175781 6.265625 -6.664062 6.265625 -6.03125 C 6.265625 -5.28125 5.757812 -4.390625 4.75 -3.359375 L 3.109375 -1.625 L 6.515625 -1.625 L 6.515625 0 L 0.484375 0 L 0.484375 -1.328125 L 3.359375 -4.375 C 3.867188 -4.90625 4.125 -5.363281 4.125 -5.75 C 4.125 -5.976562 4.039062 -6.15625 3.875 -6.28125 C 3.71875 -6.414062 3.5 -6.484375 3.21875 -6.484375 C 2.550781 -6.484375 1.820312 -6.144531 1.03125 -5.46875 L 0.25 -6.9375 C 1.320312 -7.738281 2.410156 -8.140625 3.515625 -8.140625 Z M 3.515625 -8.140625 "/></g></g></g><g fill="#ffffff" fill-opacity="1"><g transform="translate(267.519653, 189.784015)"><g><path d="M 4.046875 -8.125 C 5.191406 -8.125 6.066406 -7.769531 6.671875 -7.0625 C 7.285156 -6.351562 7.59375 -5.34375 7.59375 -4.03125 C 7.59375 -2.71875 7.285156 -1.707031 6.671875 -1 C 6.066406 -0.289062 5.191406 0.0625 4.046875 0.0625 C 2.898438 0.0625 2.015625 -0.289062 1.390625 -1 C 0.773438 -1.707031 0.46875 -2.71875 0.46875 -4.03125 C 0.46875 -5.34375 0.773438 -6.351562 1.390625 -7.0625 C 2.015625 -7.769531 2.898438 -8.125 4.046875 -8.125 Z M 4.046875 -6.625 C 3.523438 -6.625 3.148438 -6.421875 2.921875 -6.015625 C 2.691406 -5.617188 2.578125 -4.957031 2.578125 -4.03125 C 2.578125 -3.113281 2.691406 -2.453125 2.921875 -2.046875 C 3.148438 -1.640625 3.523438 -1.4375 4.046875 -1.4375 C 4.554688 -1.4375 4.925781 -1.640625 5.15625 -2.046875 C 5.394531 -2.460938 5.515625 -3.125 5.515625 -4.03125 C 5.515625 -4.945312 5.394531 -5.609375 5.15625 -6.015625 C 4.925781 -6.421875 4.554688 -6.625 4.046875 -6.625 Z M 4.046875 -6.625 "/></g></g></g></svg>